<svg width="24" height="24" viewBox="0 0 24 24" fill="none" xmlns="http://www.w3.org/2000/svg">
<g clip-path="url(#clip0_92_745)">
<path opacity="0.3" d="M11.92 8.28C12.16 6.88 11.76 5.39 10.68 4.32C9.74001 3.37 8.48001 2.93 7.24001 3L10.33 6.09L6.09001 10.33L3.00001 7.24C2.93001 8.48 3.37001 9.73 4.31001 10.68C5.35001 11.72 6.78001 12.13 8.14001 11.93C8.85001 11.83 9.54001 11.55 10.14 11.11L19.6 20.57L20.48 19.69L11.03 10.24C11.5 9.64 11.8 8.98 11.92 8.28Z" fill="#323232"/>
<path d="M22.61 18.97L13.54 9.89996C14.47 7.55996 13.99 4.79996 12.1 2.89996C9.79999 0.599962 6.21999 0.389961 3.66999 2.24996L7.49999 6.07996L6.07999 7.49996L2.24999 3.66996C0.389992 6.20996 0.599992 9.78996 2.89999 12.09C4.75999 13.95 7.46999 14.44 9.78999 13.57L18.9 22.68C19.29 23.07 19.92 23.07 20.31 22.68L22.61 20.38C23.01 20 23.01 19.36 22.61 18.97ZM19.61 20.57L10.15 11.11C9.53999 11.56 8.85999 11.83 8.14999 11.93C6.78999 12.13 5.35999 11.72 4.31999 10.68C3.36999 9.73996 2.92999 8.47996 2.99999 7.23996L6.08999 10.33L10.33 6.08996L7.23999 2.99996C8.47999 2.92996 9.72999 3.36996 10.68 4.30996C11.76 5.38996 12.17 6.87996 11.92 8.26996C11.8 8.96996 11.5 9.62996 11.04 10.22L20.49 19.67L19.61 20.57Z" fill="#323232"/>
</g>
<defs>
<clipPath id="clip0_92_745">
<rect width="24" height="24" fill="white"/>
</clipPath>
</defs>
</svg>
