<svg width="24" height="24" viewBox="0 0 24 24" fill="none" xmlns="http://www.w3.org/2000/svg">
<g clip-path="url(#clip0_92_914)">
<path opacity="0.3" d="M7.46001 9.45996C5.68001 11.25 5.55001 14.04 7.03001 16C8.56001 13.46 10.76 11.36 13.4 9.99996C11.14 11.91 9.45001 14.44 8.52001 17.32C9.27001 17.75 10.11 18 11 18C12.34 18 13.59 17.48 14.54 16.54C16.28 14.8 17.35 9.96996 17.8 6.20996C14.04 6.64996 9.21001 7.71996 7.46001 9.45996Z" fill="#323232"/>
<path d="M6.05 8.05C3.32 10.78 3.32 15.22 6.05 17.95C7.42 19.32 9.21 20 11 20C12.79 20 14.58 19.32 15.95 17.95C19.43 14.47 20 4 20 4C20 4 9.53 4.57 6.05 8.05ZM14.54 16.54C13.59 17.48 12.34 18 11 18C10.11 18 9.27 17.75 8.52 17.32C9.44 14.44 11.14 11.91 13.4 10C10.77 11.36 8.56 13.46 7.03 16C5.55 14.04 5.68 11.25 7.47 9.46C9.21 7.72 14.04 6.65 17.8 6.2C17.35 9.96 16.28 14.79 14.54 16.54Z" fill="#323232"/>
</g>
<defs>
<clipPath id="clip0_92_914">
<rect width="24" height="24" fill="white"/>
</clipPath>
</defs>
</svg>
