<svg width="24" height="24" viewBox="0 0 24 24" fill="none" xmlns="http://www.w3.org/2000/svg">
<g clip-path="url(#clip0_92_1025)">
<path opacity="0.3" d="M17.11 10.8299L14.64 10.6199L13.44 10.5199L12.97 9.40988L12 7.12988L11.03 9.40988L10.56 10.5199L9.36 10.6199L6.89 10.8299L8.77 12.4599L9.68 13.2499L9.41 14.4199L8.84 16.8399L10.97 15.5599L12 14.9299L13.03 15.5599L15.16 16.8399L14.59 14.4199L14.32 13.2499L15.23 12.4599L17.11 10.8299Z" fill="#323232"/>
<path d="M22 9.24L14.81 8.63L12 2L9.19 8.63L2 9.24L7.46 13.97L5.82 21L12 17.27L18.18 21L16.54 13.97L22 9.24ZM14.59 14.42L15.15 16.83L13.03 15.55L12 14.93L10.97 15.55L8.85 16.83L9.41 14.42L9.68 13.24L8.77 12.45L6.89 10.82L9.36 10.61L10.56 10.51L11.03 9.4L12 7.13L12.97 9.42L13.44 10.53L14.64 10.63L17.11 10.84L15.23 12.47L14.32 13.26L14.59 14.42Z" fill="#323232"/>
</g>
<defs>
<clipPath id="clip0_92_1025">
<rect width="24" height="24" fill="white"/>
</clipPath>
</defs>
</svg>
