<svg width="24" height="24" viewBox="0 0 24 24" fill="none" xmlns="http://www.w3.org/2000/svg">
<g clip-path="url(#clip0_92_1616)">
<path opacity="0.3" d="M8.83 6L12.83 10H18V12H14.83L20 17.17V6H8.83Z" fill="#323232"/>
<path opacity="0.3" d="M15.17 17.9998L13.17 15.9998H6V13.9998H11.17L8 10.8298V11.9998H6V9.99983H7.17L4 6.82983V17.9998H15.17Z" fill="#323232"/>
<path d="M18 10H12.83L14.83 12H18V10Z" fill="#323232"/>
<path d="M20 4H6.83L8.83 6H20V17.17L21.76 18.93C21.91 18.65 22 18.34 22 18V6C22 4.9 21.1 4 20 4Z" fill="#323232"/>
<path d="M1.04 3.86995L2.24 5.06995C2.09 5.34995 2 5.65995 2 5.99995V18C2 19.1 2.9 20 4 20H17.17L20.13 22.9599L21.54 21.5499L2.45 2.44995L1.04 3.86995ZM4 6.82995L7.17 9.99995H6V12H8V10.83L11.17 14H6V16H13.17L15.17 18H4V6.82995Z" fill="#323232"/>
</g>
<defs>
<clipPath id="clip0_92_1616">
<rect width="24" height="24" fill="white"/>
</clipPath>
</defs>
</svg>
