<svg width="24" height="24" viewBox="0 0 24 24" fill="none" xmlns="http://www.w3.org/2000/svg">
<g clip-path="url(#clip0_92_1783)">
<path opacity="0.3" d="M18.49 9.88003L18.57 9.03003L18.75 7.08003L16.85 6.65003L16.01 6.46003L15.57 5.72003L14.58 4.04003L12.79 4.80003L12 5.14003L11.21 4.80003L9.42 4.03003L8.43 5.71003L7.99 6.45003L7.15 6.64003L5.25 7.07003L5.43 9.01003L5.51 9.86003L4.95 10.51L3.66 11.99L4.95 13.46L5.51 14.11L5.43 14.96L5.25 16.92L7.15 17.35L7.99 17.54L8.43 18.28L9.42 19.95L11.2 19.18L12 18.85L12.79 19.19L14.57 19.96L15.56 18.28L16 17.54L16.84 17.35L18.74 16.92L18.56 14.97L18.48 14.12L19.04 13.47L20.33 12L19.04 10.53L18.49 9.88003ZM10.09 16.72L6.29 12.91L7.77 11.43L10.09 13.76L15.94 7.89003L17.42 9.37003L10.09 16.72Z" fill="#323232"/>
<path d="M23 11.99L20.56 9.2L20.9 5.51L17.29 4.69L15.4 1.5L12 2.96L8.6 1.5L6.71 4.69L3.1 5.5L3.44 9.2L1 11.99L3.44 14.78L3.1 18.48L6.71 19.3L8.6 22.5L12 21.03L15.4 22.49L17.29 19.3L20.9 18.48L20.56 14.79L23 11.99ZM19.05 13.47L18.49 14.12L18.57 14.97L18.75 16.92L16.85 17.35L16.01 17.54L15.57 18.28L14.58 19.96L12.8 19.19L12 18.85L11.21 19.19L9.43 19.96L8.44 18.29L8 17.55L7.16 17.36L5.26 16.93L5.44 14.97L5.52 14.12L4.96 13.47L3.67 12L4.96 10.52L5.52 9.87L5.43 9.01L5.25 7.07L7.15 6.64L7.99 6.45L8.43 5.71L9.42 4.03L11.2 4.8L12 5.14L12.79 4.8L14.57 4.03L15.56 5.71L16 6.45L16.84 6.64L18.74 7.07L18.56 9.02L18.48 9.87L19.04 10.52L20.33 11.99L19.05 13.47Z" fill="#323232"/>
<path d="M10.09 13.7501L7.77 11.4201L6.29 12.9101L10.09 16.7201L17.43 9.36012L15.95 7.87012L10.09 13.7501Z" fill="#323232"/>
</g>
<defs>
<clipPath id="clip0_92_1783">
<rect width="24" height="24" fill="white"/>
</clipPath>
</defs>
</svg>
