<?xml version="1.0" encoding="UTF-8"?>
<svg id="Layer_5" xmlns="http://www.w3.org/2000/svg" viewBox="0 0 64 64">
  <path d="M32,29.08c-4.37,0-7.93-3.56-7.93-7.93,0-1.94.08-3.57.23-4.97,2.16-.46,4.8-1.32,6.97-2.37,1.83,3.31,5.67,4.49,8.64,5.97,0,.44.01.9.01,1.37,0,4.37-3.56,7.93-7.93,7.93ZM23.11,48.08l-.18,2.19c.25.38.21.87-.1,1.2l-.61,7.62c4.43,1.24,15.12,1.24,19.55,0l-.82-10.1c-13.85-.3-18.33-8.25-19.47-11.01-2.27.65-3.9,2.02-4.72,5.43.25.14-.18-.29,4.34,4.76.14-1.76,2.11-1.32,2.01-.09ZM22.79,14.43c2.93-.52,5.74-1.41,8.5-2.87.54-.28,1.2-.02,1.41.55,1.27,3.6,6.19,4.64,9.5,6.62.77.46.59,1.62-.28,1.83.04,4.27-1.89,7.33-4.86,9.11.43.42.3.86.3,2.62,2.38-1.25,2.68,1.37,1.31,1.62-2.71.49-2.13,8.75,2.37,7.49,1.95-.54,4.03-2.73,3.9-4.85-.2-3.27-.37-4.01-2.1-6.03-.18-.21-.26-.48-.24-.75.11-1.1,1.72-.88,3.04-4.56,3.81-10.57-2.77-20.68-9.16-20.91-.91-.04-2.17.35-3.16.7-2.15.74-3.26-.93-4.46-1-1.79-.11-4.02.86-5.92,2.59-5.37,4.9-4.65,15.32-.7,16.34-.32-1.73-.11-5.14.06-6.8-.65-.6-.28-1.57.49-1.71ZM42.87,47.92l.86,10.5c.52-.23,1.03-.48,1.53-.77,1.61-.96,2.61-2.72,2.61-4.61,0-3.88.22-9.71-2.05-12.85-1.04,1.53-2.64,2.71-4.24,3.16-4.91,1.38-7.6-4.34-6.21-8.56v-4.3c-2.21.8-4.52.8-6.72,0v5.65c0,1.33-1.34.91-5.18,1.45,1.14,2.64,5.33,9.42,18.29,9.42.04,0,.08,0,.12,0,.52,0,.95.4,1,.92ZM20.88,50.93l-4.53-5.07c-.25,2.25-.21,4.11-.21,7.18,0,1.89,1,3.65,2.61,4.61.5.29,1.01.55,1.53.77l.6-7.49Z"/>
</svg>