<?xml version="1.0" encoding="UTF-8"?>
<svg id="Layer_5" xmlns="http://www.w3.org/2000/svg" viewBox="0 0 64 64">
  <path d="M32,41.01l-3.03-3.36v-3.45c1.97.61,4.09.61,6.06,0v3.45l-3.03,3.36ZM37.09,43.56c1.8-5.24,1.95-5.26,1.59-5.89-.33-.57-.78-.57-1.65-.74,0,2,.45,1-3.61,5.5l1.87,1.62c.6.52,1.54.27,1.8-.48ZM22.95,11.85c2.22.2,6.61-.87,9.9-3.31,1.06-.79,2.25.82,1.19,1.61-.58.43-1.2.82-1.83,1.18h8.61c1.44-1.08.61-2.99-.41-4.25-2.07-2.54-5.36-3.52-9.79-2.91-2.66.36-4.85,1.18-6.52,2.43-2.55,1.91-4.16,4.98-1.15,5.25ZM40.14,13.33c-12.76,0-12.47.03-12.76-.05-1.11.29-2.37.52-3.52.57v1.96h16.28v-2.49ZM19.8,57.84c.42.25.86.47,1.3.67l.77-9.59c.11-1.34,2.1-1.15,1.99.16l-.81,10.11c4.06,1.12,13.84,1.12,17.89,0l-.82-10.11c-.11-1.32,1.89-1.48,1.99-.16l.78,9.59c.44-.2.88-.42,1.3-.67,1.47-.87,2.38-2.47,2.38-4.19,0-7.02.25-13-6-14.08l-1.59,4.64c-.34.98-1.14,1.73-2.14,2-2.03.55-3.11-.88-4.84-2.38l-1.98,1.72c-1.67,1.45-4.29.76-5.01-1.34l-1.59-4.64c-6.27,1.08-6,7.01-6,14.08,0,1.72.91,3.32,2.38,4.19ZM39.83,17.82h-15.66c-.29,1.72-.43,3.88-.43,6.58,0,6.12,6.43,10.1,11.88,7.42,2.48-1.11,4.63-4,4.63-7.42,0-2.69-.14-4.86-.43-6.58ZM26.13,37.09c-.71.14-1.14.88-.9,1.56,1.74,5.08,1.67,5.42,2.46,5.63.72.2.88-.11,2.9-1.86-4.07-4.51-3.61-3.58-3.61-5.5l-.84.16Z"/>
</svg>