<?xml version="1.0" encoding="UTF-8"?>
<svg id="Layer_5" xmlns="http://www.w3.org/2000/svg" viewBox="0 0 64 64">
  <path d="M16.4,53.16c0-6.42-.31-13.22,5.27-14.81.23,1.68.9,4.97,2.77,8.75.35.7,1.32.75,1.74.09.22-.35.51-.75.81-1.17l1.19,2.53-2.5,11.18c-1.15-.13-2.25-.33-3.29-.62l.87-10.83c.11-1.33-1.89-1.47-1.99-.16l-.83,10.31c-.5-.22-1-.47-1.48-.75-1.58-.94-2.56-2.67-2.56-4.52ZM42.71,48.12l.84,10.31c.5-.22,1-.47,1.48-.75,1.58-.94,2.56-2.67,2.56-4.52,0-6.2.31-13.04-5.01-14.73-.23,1.7-.87,4.94-2.63,8.65-.16.33-.48.55-.85.57-.87.05-.77-.53-2.36-2.57l-1.64,3.47,2.51,11.26c1.4-.13,2.72-.35,3.97-.7l-.88-10.83c-.11-1.32,1.89-1.47,1.99-.16ZM25.51,44.65c.78-1.04,1.9-2.37,3.1-3.27-1.33-1.09-1.97-2.54-2.21-3.72-1.03.1-2,.19-2.77.3.17,1.26.64,3.75,1.88,6.69ZM35.36,43.52c-.51-.5-1-.88-1.44-1.06-1.25.57-2.1.45-3.3.03-.67.28-1.47.97-2.24,1.82,1.89,4.01,1.92,3.9,1.82,4.35l-2.51,11.25c2.36.13,5.96.12,7.91.04-2.59-11.61-2.67-11.45-2.45-11.93,2.15-4.56,2-4.3,2.2-4.5ZM38.87,44.58c1.15-2.88,1.59-5.32,1.76-6.58-.86-.13-1.81-.22-2.74-.31-.68,1.61-1.44,2.73-2.19,3.49,1.22.88,2.38,2.29,3.17,3.4ZM44.97,14.16c0-13.56-25.41-13.56-25.41,0,0,6.25,1.24,9.26,2.88,10.82-.3-.95-.46-1.96-.46-3,0-15.42,5.61-8.87,10.02-8.87s10.02-6.53,10.02,8.87c0,1.27-.25,2.49-.68,3.61,2.07-1.38,3.63-4.37,3.63-11.43ZM32,29.99c4.42,0,8.02-3.6,8.02-8.02,0-5.88-.74-7.65-1.37-8.1-1-.72-3.74,1.22-6.65,1.22s-5.65-1.94-6.65-1.22c-.62.45-1.37,2.21-1.37,8.1,0,4.42,3.6,8.02,8.02,8.02ZM35.29,31.42c-2.16.76-4.42.76-6.59,0,0,5.08.16,5.38-.33,5.83.22,1.07.99,3.06,3.81,3.6,0,0,1.91.21,3.63-3.44-.7-.38-.53-.54-.53-5.98Z"/>
</svg>