<?xml version="1.0" encoding="UTF-8"?>
<svg id="Layer_5" xmlns="http://www.w3.org/2000/svg" viewBox="0 0 64 64">
  <path d="M37.33,33.36v-2.27c2.73-1.78,4.38-4.78,4.38-8.1,0-.75-.02-1.47-.05-2.19,1.02-.38.78-1.88-.3-1.93-.13,0-.26,0-.39-.01-11.16-.35-11.65-5.21-13.08-5.24-1.04-.06-1.03,1.46-5.24,4.61-.23.17-.68.79-.2,1.4-.06,1.04-.09,2.16-.09,3.36,0,3.3,1.63,6.28,4.31,8.05v2.16c-5.59-2.84-9.79-9.75-9.79-16.44,0-9.42,8.23-12.76,15.28-12.76,9.29,0,15.29,5.01,15.29,12.76,0,6.89-4.35,13.89-10.13,16.6ZM36.47,43.27l2.52,2.12.26-7.74c-.56-.06-.26-.03-2.2-.22l-3.08,5.9c1.75-.29,2.03-.44,2.49-.06ZM41.25,37.92l-.32,9.59c-.01.38-.24.72-.59.88-.75.34-1.04-.14-3.58-2.27l-3.69,7.7c-.17.35-.52.57-.9.57-.8,0-.62-.08-5.14-7.94-2.23,1.87-2.46,2.27-3.19,1.95-.35-.16-.58-.5-.59-.88l-.32-9.62c-6.82,1.17-6.64,7.04-6.64,15.22,0,1.87.99,3.62,2.59,4.56.54.32,1.11.59,1.68.83l1.82-7.78c.3-1.29,2.25-.83,1.95.46l-1.87,7.97c4.35,1.18,14.76,1.18,19.11,0l-1.88-7.97c-.3-1.29,1.64-1.75,1.95-.46l1.83,7.79c.57-.24,1.14-.51,1.68-.83,1.59-.94,2.59-2.69,2.59-4.56,0-7.73.24-13.96-6.47-15.19ZM28.67,32.06v4.04l3.41,6.54,3.25-6.24c-.02-.28-.01-.48-.01-4.32-2.09.76-4.44.79-6.65-.03ZM34.99,45.19c-3.64.6-2.09.62-6.35-.09l-.05.04,3.51,6.1,2.9-6.05ZM24.91,37.63l.26,7.76c3.32-2.79,2.37-2.5,5.01-2.06l-3.08-5.92c-1.11.11-2.14.21-2.19.22ZM39.71,22.98c0-.75-.01-1.48-.04-2.2-4.43-.27-8.76-1.34-11.8-4.63-.95,1.06-2.19,2.24-3.39,3.17-.08,1.11-.12,2.33-.12,3.65,0,5.7,5.95,9.36,11.01,6.92,2.67-1.29,4.33-3.95,4.33-6.92Z"/>
</svg>