<?xml version="1.0" encoding="UTF-8"?>
<svg id="Layer_5" xmlns="http://www.w3.org/2000/svg" viewBox="0 0 64 64">
  <path d="M32,32.24c-4.12,0-7.48-3.35-7.48-7.48,0-1.99.08-3.65.25-5.03.39.05,0,.03,14.44.02.17,1.41.26,3.09.26,5.02,0,4.12-3.35,7.48-7.48,7.48ZM39.09,39.01c4.76.74,7.76,2.46,7.76,11.8,0,3.74.3,5.89-3.78,7.69l-.8-9.79c-.11-1.32-2.1-1.16-1.99.16l.84,10.3c-3.42.95-8.84.91-12.39.79l1.11-15.1,9.25-5.84ZM32.2,56.2c0,1.32,2,1.32,2,0,0-1.39-2-1.34-2,0ZM32.2,51.42c0,1.32,2,1.32,2,0,0-1.39-2-1.34-2,0ZM32.2,46.64c0,1.32,2,1.32,2,0,0-1.39-2-1.34-2,0ZM28.21,14.15c.54-.12,1.07.23,1.19.77.38,1.77-3.18,1.51-4.89.9-.13,1.05-.28,1.41.11,1.74.16.15.33.21.51.21,14.37,0,14.03.08,14.37-.14.46-.33.32-.62.06-2.6-.66-.03-1.63-.29-1.85-.18-1.03,1.24-2.81,1.29-4.11.79-1.23-.48-.51-2.34.73-1.86.61.24,1.45.27,1.86-.22,1.43-1.71,3.63.37,5.36-1.07,3.34-2.79,1.57-6.97-2.24-7.17-1.46-.07-2.35.14-3.34.77-.46.3-1.08.17-1.38-.29-.84-1.27-2.01-1.65-3.52-1.76-.77-.06-2.65-.05-3.73,1.25-.69.84-1.6-.2-3.94.72-1.8.71-1.96,3.08-1.63,4.5.51,2.21,3.41,4.29,6.45,3.65ZM35.97,38.62c-.5-.07-.87-.49-.87-.99v-3.92c-2.04.71-4.16.71-6.2,0v3.92c0,.5-.38.93-.87.99l3.98,2.51,3.97-2.51ZM20.92,58.49l.78-9.79c.11-1.33,2.1-1.15,1.99.16l-.83,10.3c1.22.34,2.5.55,3.86.67,1.2-16.34.99-16.01,1.61-16.4l1.78-1.12-5.23-3.3c-4.75.74-7.75,2.46-7.75,11.79,0,3.71-.32,5.88,3.78,7.69Z"/>
</svg>