<?xml version="1.0" encoding="UTF-8"?>
<svg id="Layer_5" xmlns="http://www.w3.org/2000/svg" viewBox="0 0 64 64">
  <path d="M17.27,50.88c0-11.2,3.25-11.3,10.18-12.02l3.54,4.96v4.53h-7.39c-.53-.83-1.76-.5-1.83.45-.79,9.68-.45,5.64-.78,9.69-.45-.2-.89-.43-1.32-.68-1.48-.88-2.4-2.5-2.4-4.24v-2.69ZM36.54,38.87l-3.54,4.96v4.53h7.38c.53-.83,1.75-.5,1.83.45l.78,9.69c.45-.2.9-.43,1.33-.68,1.48-.88,2.4-2.5,2.4-4.24v-2.69c0-11.2-3.25-11.3-10.18-12.02ZM31,50.36h-7.34l-.34,4.23h7.68v-4.23ZM42.16,19.26c.13,1.47.29,4.45.1,6.03,4.82-1.81,5.06-4.11-.1-6.03ZM27.57,9.64v-2.31c-4.93,1.66-7.89,6.04-7.49,10.58,6.07-2.85,16.98-2.82,23.11-.4.21-4.76-3.22-8.88-7.9-10.29v2.43c0,1.88-1.53,3.41-3.41,3.41h-.9c-1.88,0-3.41-1.53-3.41-3.41ZM31.88,11.05c.78,0,1.41-.63,1.41-1.41v-4.23c0-.78-.63-1.41-1.41-1.41h-.9c-.78,0-1.41.63-1.41,1.41v4.23c0,.78.63,1.41,1.41,1.41h.9ZM35.07,33.93c-2,.62-4.09.63-6.14-.01v3.58l3.07,4.3,3.07-4.3v-3.56ZM39.99,26.48c.24-.78.36-1.6.36-2.44,0-2.05-.09-3.86-.27-5.4-5.12-1.28-11.41-1.18-16.17.04-.17,1.47-.54,5.73.08,7.74,1.47,4.93,6.99,7.39,11.67,5.12.01,0,3.6-2.67,4.33-5.06ZM40.32,50.36h-7.32v4.23h7.67l-.34-4.23ZM22.95,59.17c2.39.66,5.06.8,8.07.82-.02-.27-.02-.03-.02-3.41h-7.84l-.21,2.59ZM21.73,25.21c-.18-1.57-.03-4.45.1-5.87-4.57,1.76-4.97,3.97-.1,5.87ZM33,56.58c0,3.19,0,3.15-.02,3.41,3-.02,5.66-.16,8.05-.82l-.21-2.59h-7.83Z"/>
</svg>