<?xml version="1.0" encoding="UTF-8"?>
<svg id="Layer_5" xmlns="http://www.w3.org/2000/svg" viewBox="0 0 64 64">
  <path d="M53.36,46.23v11.67c0,1.16-.95,2.1-2.11,2.1h-13.27c-1.17,0-2.11-.94-2.11-2.1v-11.67c0-1.17.95-2.11,2.11-2.11h1.44c0,7.13-.18,7.1.52,7.48.7.38.82.09,4.88-2.45,4.09,2.56,4.19,2.83,4.88,2.45.69-.38.52-.34.52-7.48h1.04c1.17,0,2.11.95,2.11,2.11ZM37.98,42.11h6.53c-.91-3.89-2.68-5.41-5.21-6.13-5.9,8.21-5.62,8.09-6.3,8.13-.63.03-.45.06-4.09-3.96v19.83c1.92,0,3.73-.05,5.43-.22-.64-1.22-.48-.62-.48-13.54,0-2.27,1.85-4.11,4.11-4.11ZM23.13,44.11c-.69-.04-.43.03-6.36-8.21-6.41,1.65-6.13,8.77-6.13,16.46,0,2.07,1.1,4.01,2.87,5.06.57.34,1.17.62,1.77.88l.92-11.48c.11-1.32,2.1-1.16,1.99.16l-.96,12c2.87.81,6.06.98,9.67.99v-19.49l-2.99,3.29c-.19.21-.48.34-.8.33ZM28.02,16.1c4.69,0,8.71-1.87,9.32-4.2l-18.66-.09c.53,2.37,4.59,4.29,9.35,4.29ZM23.27,41.53l3.18-3.51-3.59-2.92c-1.74.19-2.78.26-3.92.41l4.33,6.02ZM37.7,14.92c-4.49,4.32-15.33,4.22-19.58-.21-.05,1.04-.08,2.15-.08,3.35,0,5.44,4.42,9.86,9.86,9.86s9.86-4.42,9.86-9.86c0-1.12-.02-2.16-.07-3.14ZM29.68,4.04c-6.73.23-9.63-1.46-11.02,5.77l18.52.09c-1.07-5.68-3.05-6.01-7.5-5.86ZM41.42,48.91c2.8-1.75,3.22-2.24,3.93-1.8l2.86,1.8v-4.8h-6.79v4.8ZM31.63,29.32c-2.4.8-4.96.83-7.45,0v4.27l3.88,3.16,3.57-2.91v-4.52ZM33.23,35.13l-3.56,2.9,3.18,3.51,4.3-5.98c-1.1-.15-1.88-.21-3.93-.42Z"/>
</svg>