<?xml version="1.0" encoding="UTF-8"?>
<svg id="Layer_5" xmlns="http://www.w3.org/2000/svg" viewBox="0 0 64 64">
  <path d="M22.1,59.08l.89-11.15c.11-1.31-1.89-1.49-1.99-.16l-.85,10.64c-.53-.23-1.05-.49-1.56-.79-1.63-.97-2.65-2.76-2.65-4.67,0-6.7-.3-13.63,5.45-15.25,4.09,10.18,3.89,10.32,4.82,10.32.42,0,.14.1,5.94-3.63,5.83,3.75,5.53,3.63,5.94,3.63.93,0,.71-.09,4.79-10.25,5.51,1.73,5.19,8.63,5.19,15.17,0,1.92-1.02,3.71-2.65,4.67-.51.3-1.03.56-1.56.79l-.87-10.64c-.11-1.32-2.1-1.16-1.99.16l.91,11.15c-4.49,1.26-15.32,1.26-19.8,0ZM35.44,36.01c-.04-.26-.03,0-.03-4.74-2.24.82-4.59.82-6.83,0v4.31l3.56,6.01,3.3-5.57ZM41.57,16.05c.28,1.8.57,5.92.14,7.96,4.02-1.04,3.95-7.04-.14-7.96ZM31,23.61c0-.76-.62-1.38-1.38-1.38s-1.38.62-1.38,1.38.62,1.38,1.38,1.38,1.38-.62,1.38-1.38ZM26.3,24.21c-.69-.2-1.42-.53-2.11-.92.64,3.74,3.89,6.59,7.81,6.59,4.37,0,7.93-3.56,7.93-7.93,0-12.78-2.75-8.75-7.93-8.75s-7.71-3.81-7.91,7.61c.65.54,1.62,1.08,2.48,1.39,1.54-3.3,6.43-2.16,6.43,1.42,0,1.86-1.52,3.38-3.38,3.38-1.66,0-3.04-1.2-3.32-2.78ZM42.45,14.19c-.56-6.23-3.99-10.19-10.45-10.19-4.09,0-7.12,1.13-9.02,3.36-1.97,2.32-2.33,5.34-2.34,7.2.69-.35,1.46-.56,2.27-.61,1.69-5.25,5.83-2.76,9.09-2.76s7.42-2.45,9.09,2.76c.47.03.92.1,1.35.23ZM26.69,45.52l3.96-2.55-3.6-6.08c-2.04.21-2.64.25-3.67.39l3.3,8.23ZM22.28,23.99c-.42-1.98-.14-6.1.15-7.94-4.06.91-4.17,6.87-.15,7.94ZM40.89,37.33c-.9-.14-1.62-.2-3.67-.41l-3.58,6.05,3.96,2.55,3.29-8.19Z"/>
</svg>