<?xml version="1.0" encoding="UTF-8"?>
<svg id="Layer_5" xmlns="http://www.w3.org/2000/svg" viewBox="0 0 64 64">
  <path d="M40.41,50.01l.75,9.15c-4.13,1.15-14.2,1.15-18.33,0l.73-9.12c8.96,2.66,8.37,2.61,8.89,2.33l7.96-2.36ZM21.83,18.83c21.1,0,20.74.25,21.09-.53.31-.68-.07-.88-1.98-3.07h-17.96l-1.84,2.11c-.51.58-.09,1.49.68,1.49ZM35.12,36.97v-3.38c-1.97.62-4.16.65-6.23,0v3.83l3.05,10.35,3.18-10.79ZM40.46,23.6c0-1.03-.02-1.94-.06-2.77h-16.81c-.04.82-.06,1.73-.06,2.77,0,4.66,3.8,8.46,8.47,8.46s8.46-3.79,8.46-8.46ZM33.23,4.65c-2.36,1.87-4.24.88-6.05.65-.96-.12-2.53,3.6-3.43,7.94h16.44c-.83-3.9-2.52-8.75-4.28-9.14-1.04-.23-1.91-.05-2.67.55ZM17.08,53.49c0,1.76.93,3.41,2.44,4.3.43.26.89.48,1.36.69.8-9.98.76-9.68.83-9.98.07-.31.02-.12,1.57-4.13-1.02-.61-2.71-1.84-3.68-3.7-2.78,2.62-2.52,9-2.52,12.81ZM20.9,38.27c.38,3.02,4.01,4.72,4.05,4.74.48.22.71.78.52,1.27l-1.48,3.81,6.53,1.94c-4.01-13.59-4.08-13.19-3.63-13.79v-3.52c-.72-.41-1.39-.9-1.99-1.46-2.9,2.54-4.26,4.9-3.99,7.01ZM38.92,43.01s3.24-1.52,3.94-4.22c.58-2.23-.72-4.75-3.82-7.47-.58.53-1.23,1.01-1.92,1.4v3.76c.21.53.21.06-3.76,13.55l6.53-1.94-1.48-3.8c-.19-.49.03-1.05.52-1.27ZM44.29,40.58c-.96,1.91-2.67,3.18-3.7,3.8l1.42,3.65c.39.39.25,0,1.1,10.45.48-.21.93-.44,1.37-.69,1.51-.89,2.44-2.54,2.44-4.3,0-3.88.26-10.32-2.63-12.91Z"/>
</svg>