<?xml version="1.0" encoding="UTF-8"?>
<svg id="Layer_5" xmlns="http://www.w3.org/2000/svg" viewBox="0 0 64 64">
  <path d="M23.55,49.05h7.45v4.23h-7.77l.32-4.23ZM27.18,8.26c-3.04,1.67-5.03,4.74-5.29,8.22,5.5-2.45,14.7-2.55,20.48,0-.25-3.45-2.22-6.5-5.21-8.18-1.7,4.19-8.33,4.16-9.98-.05ZM22.78,59.15c2.44.68,5.16.82,8.22.84v-4.72h-7.93l-.3,3.88ZM22.44,24.48c0-2,.08-4.26.39-6.23-4.17,1.8-4.66,4.22-.39,6.23ZM36.63,38.47l-3.63,5.34v3.25c8.98,0,8.64-.09,9.03.25.44.39.29,0,1.14,11.18.47-.21.93-.44,1.37-.7,1.51-.9,2.45-2.55,2.45-4.33v-2.74c0-11.4-3.3-11.51-10.37-12.24ZM25,17.52c-.56,2.55-.69,6.93-.43,8.32.67,3.57,3.8,6.16,7.43,6.16,4.07,0,7.57-3.27,7.57-7.57,0-2.98-.19-5.28-.57-6.98-.22-.06-.45-.12-.68-.17-4.32-.99-9.34-.87-13.31.24ZM17,50.71v2.74c0,1.77.94,3.43,2.45,4.33.45.26.9.5,1.37.7.82-10.7.54-11.43,1.8-11.43h8.38v-3.25l-3.63-5.34c-6.83.71-10.37.59-10.37,12.24ZM33,55.28v4.72c3.06-.02,5.78-.16,8.22-.84l-.3-3.88h-7.92ZM35.49,6.72c0-1.5-1.49-2.72-3.32-2.72s-3.32,1.22-3.32,2.72,1.49,2.72,3.32,2.72,3.32-1.22,3.32-2.72ZM41.16,18.14c.32,1.99.43,4.57.4,6.45,4.54-2.01,4.2-4.59-.4-6.45ZM40.44,49.05h-7.44v4.23h7.76l-.32-4.23ZM35.14,33.45c-2.05.72-4.23.72-6.28,0v3.65l3.14,4.61,3.14-4.61v-3.65Z"/>
</svg>