<?xml version="1.0" encoding="UTF-8"?>
<svg id="Layer_5" xmlns="http://www.w3.org/2000/svg" viewBox="0 0 64 64">
  <path d="M41.37,11.94h-17.78c.5-4.46,4.29-7.94,8.89-7.94s8.39,3.48,8.89,7.94ZM21.17,58.78l-3.24-18.59c-2.15,3.12-1.91,8.96-1.91,12.79,0,3.2,2.19,4.76,5.16,5.8ZM40.7,59.38l4.04-20.57c-.89-.64-1.94-1-3.15-1.24l-3.78,10.54c-.14.4-.52.66-.94.66h-10.4c-.44,0-.84-.29-.96-.72l-3.05-10.49c-1.05.2-1.98.49-2.79.97l3.64,20.84c4.02.85,13.38.85,17.39,0ZM24.46,37.28l2.76,9.5h8.94l3.4-9.49c-1-.11-1.05-.1-2.77-.28l-2.52,2.82c-1.22,1.36-3.35,1.36-4.56,0l-2.52-2.82c-1.54.16-1.85.18-2.74.28ZM32.79,38.5l2.61-2.92v-3.93c-2.22.72-4.57.71-6.79,0v3.93l2.6,2.92c.42.47,1.15.48,1.58,0ZM19.79,16.07c-.31.27-.12.78.28.78,24.26,0,24.1.16,24.26-.29.04-.11.08-.32-.13-.49-2.59-2.22-2.42-2.13-2.64-2.13h-19.04c-.35,0-.1-.14-2.74,2.13ZM46.4,40.72l-3.54,18.05c2.92-1.03,5.13-2.58,5.13-5.79,0-3.67.2-9.06-1.58-12.26ZM41.05,18.84h-18.11c-.02.71-.04,1.45-.04,2.24,0,5.01,4.08,9.09,9.09,9.09s9.09-4.08,9.09-9.09c0-.79-.02-1.53-.04-2.24Z"/>
</svg>