<?xml version="1.0" encoding="UTF-8"?>
<svg id="Layer_5" xmlns="http://www.w3.org/2000/svg" viewBox="0 0 64 64">
  <path d="M32,31.39c-4.79,0-8.69-3.9-8.69-8.69,0-.63,0-1.21.02-1.76,3.13,1.8,7.84.59,8.56-2.33.74,3.01,5.69,4.18,8.76,2.21.02.6.03,1.22.03,1.89,0,4.79-3.9,8.69-8.69,8.69ZM31.65,16.51c.11.21.18.44.24.66.06-.23.13-.45.24-.66h-.48ZM29.16,16.66c-2.17.23-3.9.71-5.68,1.5l-.02.22c.39.71,1.57,1.4,3.2,1.4,2.5,0,4.55-1.76,2.5-3.12ZM21.87,35.56c1.42-.07,3.42.35,4.91.42v-3.97c-3.26-1.83-5.47-5.32-5.47-9.32,0-1.3.03-2.43.08-3.45-1.73,1.04-3.27,2.38-4.58,4.02-2.08,2.57-1.75,6.3.74,8.5l4.32,3.79ZM40.44,18.12c-1.64-.71-3.49-1.25-5.78-1.48-2.09,1.35-.04,3.14,2.48,3.14,1.79,0,3.09-.83,3.31-1.66ZM42.6,19.23c.06,1.05.09,2.19.09,3.47,0,4-2.21,7.48-5.47,9.32v3.97c1.49-.08,3.49-.5,4.91-.42l4.32-3.79c2.49-2.19,2.82-5.92.74-8.49-1.32-1.64-2.86-2.99-4.59-4.05ZM48.52,21.77c-.33-5.68-2.84-15.77-16.15-17.77h-.73c-13.31,2-15.82,12.08-16.15,17.76,7.6-9.18,24.36-10.43,33.03,0ZM28.78,32.89v4.08c0,1.43-2.02,1.08-4.43.77l6.75,5.93c.5.44,1.31.44,1.8,0l6.75-5.93c-1.09.14-2.53.34-3.55.22-.5-.06-.89-.48-.89-.99v-4.08c-2.09.66-4.34.66-6.43,0ZM42.76,37.67c-9.27,8.14-9.07,8.34-10.76,8.34s-1.48-.19-10.76-8.34c-4.67,1.04-4.54,6.93-4.54,15.63,0,1.81.96,3.51,2.51,4.42.46.28.94.51,1.43.73l.81-10.1c.11-1.32,2.1-1.16,1.99.16l-.85,10.62c4.26,1.19,14.56,1.19,18.82,0l-.87-10.62c-.11-1.32,1.89-1.48,1.99-.16l.82,10.1c.49-.21.96-.45,1.43-.73,1.55-.92,2.51-2.61,2.51-4.42v-2.79c0-9.87-1.41-12.14-4.54-12.84Z"/>
</svg>