<?xml version="1.0" encoding="UTF-8"?>
<svg id="Layer_5" xmlns="http://www.w3.org/2000/svg" viewBox="0 0 64 64">
  <path d="M31.01,7.37c-.25,0-.47-.21-.47-.47v-2.44c0-.25.21-.47.47-.47h1.96c.25,0,.47.21.47.47v2.44c0,.25-.21.47-.47.47h-1.96ZM40.5,23.46c0-1.86-.07-3.45-.2-4.84h-16.59c-.13,1.39-.2,2.98-.2,4.84,0,6.25,6.52,10.37,12.17,7.67,3.32-1.75,4.83-4.63,4.83-7.67ZM23.36,11.21c.5-.02,16.7-.03,17.27,0-.91-1.96-2.79-3.55-5.2-4.34,0,1.44-1.15,2.5-2.47,2.5h-1.96c-1.32,0-2.47-1.06-2.47-2.49-2.4.79-4.27,2.38-5.19,4.33ZM23.04,16.55c.27.11,0,.07,17.43.07.94,0,1.71-.76,1.71-1.71,0-.89-.71-1.71-1.71-1.71-18.02,0-17.36-.15-18.04.39-.89.76-.96,2.33.61,2.97ZM17.03,53.46c0,1.77.94,3.42,2.45,4.32.45.26.9.5,1.37.7.28-3.49.09-1.16.68-8.43l-2.35-9.04c-2.4,2.81-2.15,8.71-2.15,12.45ZM33,54.76v5.23c3.06-.02,5.77-.16,8.2-.84l-.36-4.43-7.84.04ZM35.13,33.47c-2.09.65-4.18.65-6.26,0v3.72l3.13,5.68,3.13-5.68v-3.72ZM22.8,59.16c2.43.68,5.15.82,8.2.84v-5.22l-7.85.04-.35,4.34ZM20.9,39.69l2.1,8.08c.4.16.67.55.63,1l-.32,4.04,7.69-.04v-7.57l-3.69-6.69c-2.46.25-4.74.37-6.41,1.18ZM42.44,49.77l.71,8.72c.47-.21.93-.44,1.37-.7,1.51-.89,2.45-2.55,2.45-4.32,0-3.76.25-9.67-2.16-12.47l-2.37,8.77ZM40.91,47.79l2.19-8.11c-1.71-.82-4.03-.93-6.41-1.18l-3.69,6.69v7.56l7.67-.04-.32-3.96c-.03-.42.2-.8.56-.97Z"/>
</svg>