<?xml version="1.0" encoding="UTF-8"?>
<svg id="Layer_5" xmlns="http://www.w3.org/2000/svg" viewBox="0 0 64 64">
  <path d="M42.36,37.34c-1.37,2.44-3.43,8.45-3.78,22.64-1.53.03-3.22.03-4.9-.02-.35-14.07-2.38-20.09-3.75-22.57.86-.08,1.05-.1,1.51-.15,2.14,4.09,7.79,4.06,9.94,0,.32.03.65.07.96.1ZM43.73,22.38c0-2.3-.12-4.24-.37-5.78-2.8-.38-5.75-1.53-8.39-3.46-1.74,2.03-3.91,3.83-5.65,4.9-.12,1.28-.18,2.73-.18,4.34,0,4.02,3.28,7.29,7.3,7.29s7.29-3.27,7.29-7.29ZM47.48,36.12c1.06-1.83,1.62-3.91,1.62-6.05v-13.87c0-6.73-5.47-12.21-12.19-12.21h-.81c-6.73,0-12.2,5.48-12.2,12.21v12.35c1.84,0,3.03,1.39,3.03,2.91v4.29c1.35-.24,2.8-.35,4.16-.48,0-5.24-.04-4.96.09-5.25-2.44-1.68-4.04-4.48-4.04-7.65,0-1.31.04-2.51.12-3.62-.8-.35-.79-1.42-.07-1.79,2.62-1.38,4.98-3.47,6.84-5.83.34-.43.97-.51,1.41-.16,3.17,2.57,6.79,3.78,10.04,3.78,1.3,0,1.38,2.01-.08,2,.22,1.56.33,3.41.33,5.63,0,3.17-1.6,5.97-4.03,7.65.14.3.09.08.09,5.25.31.03.62.06.92.09,1.7.16,3.3.33,4.77.75ZM33.08,31.03v4.96c1.28,3.14,5.47,3.02,6.71-.03v-4.93c-2.18.85-4.53.85-6.71,0ZM19.36,52.86c.42,0,.74-.33.74-.74v-12.74c-.08-.19-.14-.39-.18-.6h-3.2c-.04.21-.1.41-.18.61v12.73c0,.41.33.74.74.74h2.08ZM47.58,38.23c-.89-.33-1.89-.51-2.99-.65-.74.96-3.58,5.69-4,22.33,2.01-.1,3.87-.33,5.6-.82l-.9-10.99c-.11-1.33,1.89-1.47,1.99-.16l.85,10.48c.52-.23,1.03-.48,1.53-.77,1.61-.95,2.61-2.72,2.61-4.6,0-5.73.31-12.95-4.7-14.82ZM28.78,52.37l-1.56-.04-.54,6.78c1.56.44,3.22.67,5.01.78-.42-16.22-3.13-21.11-3.94-22.22-.28.04-.55.09-.82.14v.5c0,1.61-1.31,2.91-2.91,2.91-1.34,0-1.42.02-1.9-.09v11c0,.99-.53,1.84-1.31,2.33.58,2.15,2.03,3.15,3.93,3.97l.84-10.47c.11-1.32,2.1-1.16,1.99.16l-.18,2.22,1.46.04c1.3.04,1.3,2-.06,2ZM20.54,36.78c.74,0,1.35.61,1.35,1.35,0,.97.68,1.08.91,1.08h1.21c.5,0,.91-.41.91-.91v-6.83c0-.5-.41-.91-.91-.91h-1.21c-.5,0-.91.41-.91.91,0,.74-.6,1.35-1.35,1.35h-4.43c-.74,0-1.35-.61-1.35-1.35,0-.5-.41-.91-.91-.91h-1.21c-.5,0-.91.41-.91.91v6.83c0,.5.41.91.91.91h1.21c.5,0,.91-.41.91-.91,0-1.4,1.11-1.52,1.35-1.52h4.43Z"/>
</svg>