<?xml version="1.0" encoding="UTF-8"?>
<svg id="Layer_5" xmlns="http://www.w3.org/2000/svg" viewBox="0 0 64 64">
  <path d="M36.18,44.58l-3-4.16,3.29-3.23c2.35.26,4.2.35,5.82.77l-6.11,6.62ZM18.77,57.65c.49.29,1,.54,1.52.77l.84-10.48c.11-1.33,2.1-1.15,1.99.16l-.88,11c4.42,1.24,15.09,1.24,19.51,0l-.9-11c-.11-1.32,1.89-1.48,1.99-.16l.85,10.48c.52-.22,1.03-.48,1.52-.77,1.61-.95,2.61-2.72,2.61-4.6,0-4.9.32-11.9-3.57-14.28-7.97,8.63-7.58,8.43-8.24,8.39-.63-.04-.53-.11-3.42-4.12v9.71c0,1.32-2,1.32-2,0v-9.33c-2.58,3.58-2.52,3.71-3.15,3.75-.66.05-.32.2-8.04-8.17-3.57,2.55-3.24,9.42-3.24,14.06,0,1.88,1,3.65,2.61,4.6ZM26.64,34.58c0-4.48-.03-4.27.08-4.54-2.27-1.65-3.76-4.32-3.76-7.34,0-.83.02-1.56.04-2.24-1.89-1.81,4.38-3.42,6.72-6.28-.64.08-1.28.19-1.9.35-1.55.41-3.19-.32-3.9-1.73l-.47-.93c-6.57,5.96-5.1,19.18,3.18,22.71ZM21.29,38.09l6,6.5,3-4.16-3.24-3.18c-2.22.23-4.18.35-5.75.85ZM35.36,35.48v-4.34c-2.23.88-4.61.82-6.71-.03v4.9l3.09,3.03,3.62-3.56ZM39.12,22.7c0-.69-.01-1.32-.04-1.93-3.01-1.08-5.85-2.69-8.32-4.72-1.77,1.83-3.81,2.51-5.72,3.91-.05.8-.07,1.7-.07,2.74,0,3.9,3.17,7.08,7.08,7.08s7.08-3.17,7.08-7.08ZM25.72,11.9c.29.58.95.87,1.59.7,2.62-.7,5.41-.72,8.12,0,.63.17,1.28-.12,1.58-.7,2.68-5.34,2.92-5.4,2.55-6.22-.17-.37-.48-.64-.87-.74-4.9-1.28-9.92-1.24-14.63,0-.83.22-1.25,1.15-.86,1.93l2.52,5.03ZM38.79,12.8c-.71,1.42-2.35,2.15-3.88,1.74-1.1-.3-2.23-.45-3.37-.46,2.74,2.38,6.02,4.19,9.5,5.23.92.27.96,1.56.06,1.89.01.48.02.98.02,1.5,0,3.05-1.52,5.75-3.83,7.39.1.27.07-.02.07,4.47,8.45-3.63,9.84-17.88,2.26-23.4l-.82,1.64Z"/>
</svg>