<?xml version="1.0" encoding="UTF-8"?>
<svg id="Layer_5" xmlns="http://www.w3.org/2000/svg" viewBox="0 0 64 64">
  <path d="M36.29,44.88l-3.21-2.27,4.14-4.81c.49.05.03,0,1.15.11l-2.08,6.97ZM32,31.05c4.85,0,8.8-3.95,8.8-8.8,0-.89-.02-1.71-.05-2.5-4.93,1.36-12.73,1.32-17.51,0-.03.78-.05,1.62-.05,2.51,0,4.85,3.95,8.8,8.81,8.8ZM30.53,42.61l-4.25-4.95c-.35,0-.73,0-1.1.02l2.15,7.2,3.21-2.27ZM28.73,32.54c0,4.61.07,4.32-.19,4.7l3.25,3.79,3.51-4.08c-.07-.25-.05.27-.05-4.4-2.15.68-4.42.67-6.53,0ZM34.82,59.96l-1.7-14.88-1.31-.93-1.32.94-1.7,14.86c1.68.06,3.98.07,6.04.01ZM21.58,12.99c3.7-1.02,17.32-.98,20.86,0l.72-1.2c1.28-2.13.2-4.95-2.24-5.63-10.43-2.91-7.38-2.91-17.81,0-2.45.69-3.52,3.51-2.24,5.63l.73,1.21ZM16.51,53.22c0,1.84.97,3.56,2.54,4.49.47.28.96.52,1.46.74l.82-10.23c.11-1.33,2.1-1.15,1.99.16l-.86,10.75c1.35.38,2.78.6,4.31.72l1.51-13.2c-1.07.76-1.14.86-1.53.86-.44,0-.83-.29-.96-.71-2.65-8.88-2.58-8.63-2.63-8.9-6.45.99-6.82,8.96-6.66,12.46v2.88ZM17.81,38.43c1.31-1.4,3.12-2.39,5.62-2.61l-.75-1.51c-.13-.16-.37-.23-.59-.19-1.28.24-5.87,1.33-5.16,2.41.08.11.11.21.88,1.89ZM41.34,17.47c1.19-.45,1.57-.86,1.61-.98,0-.7.17-1.04-.32-1.33-.09-.02-.18-.06-.27-.11-.31-.19-1.37-.33-1.47-.36-2.46-.4-9.32-.75-17.83.02-2.41.41-1.97.72-1.97,1.79h0s.19.42,1.58.96c2.13.81,5.62,1.29,9.35,1.29s7.18-.48,9.33-1.28ZM44.94,57.7c1.57-.93,2.54-2.65,2.54-4.49v-2.82c0-9.92-2.63-11.62-7.11-12.26-2.76,9.25-2.53,9.08-3.21,9.31-.65.22-1.06-.24-1.87-.81l1.51,13.24c1.68-.11,3.24-.34,4.71-.75l-.88-10.75c-.11-1.32,1.89-1.49,1.99-.16l.83,10.24c.5-.22.99-.46,1.46-.74ZM41.62,34.32l-.92,1.84c2.2.32,4.19.9,5.71,2.46.92-2.02.9-1.98.96-2.08.71-1.09-3.88-2.18-5.16-2.42-.22-.04-.46.04-.59.19Z"/>
</svg>