<?xml version="1.0" encoding="UTF-8"?>
<svg id="Layer_5" xmlns="http://www.w3.org/2000/svg" viewBox="0 0 64 64">
  <path d="M36.97,43.96l.26,4.44-5.36,6.21-5.35-6.21.25-4.44c.02-.42-.21-.8-.59-.97l-3.89-1.72.69-3.67c1.07-.18,2.04-.25,4.01-.45l4.1,10.86c.33.86,1.55.86,1.87,0l4.1-10.86c1.73.18,2.73.26,3.72.41l.69,3.71-3.89,1.72c-.38.17-.62.56-.59.97ZM42.88,38.04l.68,3.64c.09.46-.15.91-.58,1.1l-3.98,1.76c.26,4.49.35,4.45,0,4.86-6.2,7.17-6.21,7.2-6.44,7.43-.42.43-1.03.38-1.4,0q-.23-.24-6.43-7.43c-.35-.41-.26-.33-.01-4.86l-3.98-1.76c-.42-.19-.66-.64-.58-1.1l.66-3.54c-5.04,1.88-4.72,8.78-4.72,14.88,0,1.89,1,3.66,2.62,4.62.5.3,1.01.55,1.54.78l.84-10.53c.11-1.33,2.1-1.15,1.99.16l-.89,11.04c4.44,1.24,15.16,1.24,19.6,0l-.9-11.04c-.11-1.32,1.89-1.47,1.99-.16l.86,10.53c.52-.23,1.03-.48,1.53-.77,1.62-.96,2.62-2.73,2.62-4.62v-2.89c0-8.37-1.82-11.04-5.02-12.09ZM32,29.47c3.82,0,7.03-2.45,7.89-5.74-2.5,2.1-6.24.64-6.71-2.54-.76-.38-1.59-.38-2.35,0-.47,3.18-4.21,4.64-6.71,2.54.86,3.29,4.06,5.74,7.88,5.74ZM28.63,30.92v4.98l3.37,8.93,3.37-8.93v-4.98c-2.17.72-4.48.75-6.74,0ZM46.84,19.37c0-15.37-6.94-15.37-14.98-15.37s-14.99,0-14.99,15.37c0,6.45,3.95,12.19,9.75,14.41,0-3.73-.03-3.46.07-3.73-2.88-1.68-4.81-4.66-4.81-8.07,0-1.29.14-6.52.73-7.38.27-.4.63-.41,1.27-.57,7.57-1.9,7.79-4.49,8.92-4.56,1.01-.06,2.5,2.67,7.65,3.62.36.07.66.33.77.69.6,1.92.89,4.61.89,8.21,0,3.41-1.93,6.4-4.82,8.07.09.26.07.03.07,3.61,5.64-2.29,9.47-7.98,9.47-14.29ZM39.48,14.93c-2.39-.54-4.63-1.61-6.55-3.12-2.38,2.26-5.46,3.37-8.62,4.17-.08.46-.15.95-.21,1.49,2.21-1.9,5.52-.99,6.52,1.67.94-.3,1.73-.31,2.77.02.99-2.66,4.3-3.59,6.52-1.69-.1-.96-.25-1.81-.43-2.54ZM24.64,20.59c0,1.17.95,2.13,2.13,2.13s2.13-.95,2.13-2.13-.95-2.13-2.13-2.13-2.13.95-2.13,2.13ZM35.12,20.59c0,1.17.95,2.13,2.13,2.13s2.13-.95,2.13-2.13-.95-2.13-2.13-2.13-2.13.95-2.13,2.13Z"/>
</svg>