<?xml version="1.0" encoding="UTF-8"?>
<svg id="Layer_5" xmlns="http://www.w3.org/2000/svg" viewBox="0 0 64 64">
  <path d="M40.78,57.48l-4.79-4.45,4.79-3.85v8.3ZM29.57,54.29l-5.86,5.46c.39.4,0,.26,16.24.26.17,0,.32-.06.45-.15l-5.98-5.56c-2.71,2.18-2,2.21-4.85,0ZM35.01,33.51v-3.17c-1.96.61-4.07.61-6.03,0v3.31l2.9,1.74,3.13-1.88ZM23.47,57.23l4.5-4.19-4.5-3.49v7.68ZM32.02,53.66l7.4-5.95h-15.07l7.68,5.95ZM41.93,15.04c4.15-5.19-1.85-11.04-10.13-11.04-8.69,0-14.54,6.34-9.78,11.46,1.09-9.22,6.1-5.12,9.98-5.12s8.75-3.98,9.93,4.7ZM25.58,35.4c2.32,4.32,2.34,4.62,2.96,4.66.61-.02.79-.67,1.97-3.17l-2.84-1.7c-1.27.14-1.09.11-2.1.21ZM35.24,40.06c.67-.04.8-.65,2.97-4.68-.76-.08-1.24-.12-2.07-.21l-2.87,1.72c1.06,2.23,1.33,3.15,1.97,3.17ZM39.39,12.87c-1.14-2.96-3.31-.53-7.38-.53s-6.26-2.41-7.38.52c4.52,3.54,10.48,3.39,14.77,0ZM39.89,14.98c-4.7,3.25-10.82,3.39-15.78,0-.22,1.44-.34,3.29-.34,5.6,0,4.54,3.69,8.23,8.23,8.23s8.23-3.69,8.23-8.23c0-2.3-.12-4.15-.33-5.59ZM46.52,48.54v-1.49c0-8.94-2.28-10.75-6.19-11.41l-2.56,4.77c-.56,1.04-1.5,1.65-2.52,1.65-1.97,0-2.58-1.76-3.37-3.41l-.76,1.59c-1.12,2.36-3.91,2.43-5.13.17l-2.54-4.73c-5.95,1.08-5.98,6.32-5.98,12.86,0,1.71.91,3.31,2.37,4.17.5.3,1.05.56,1.62.79v-4.97c0-.89.42-1.67,1.06-2.19l.19-2.52c.1-1.33,2.09-1.16,1.99.15l-.13,1.72h14.83l-.13-1.72c-.1-1.31,1.9-1.48,1.99-.15l.17,2.31c.8.5,1.34,1.39,1.34,2.4v4.87c.48-.21.94-.44,1.37-.69,1.46-.87,2.37-2.46,2.37-4.17Z"/>
</svg>