<?xml version="1.0" encoding="UTF-8"?>
<svg id="Layer_5" xmlns="http://www.w3.org/2000/svg" viewBox="0 0 64 64">
  <path d="M30.65,19.27c-2.42,2.91-4.97,3.96-7.45,1.03,2.83-.17,4.5-1.52,5.7-1.92.5-.17,1.23.37,1.75.89ZM40.69,20.31c-2.85-.17-4.49-1.52-5.7-1.92-.49-.17-1.22.35-1.75.88,2.43,2.92,4.98,3.96,7.45,1.04ZM19.19,36.45c-4.9,2.32-4.53,9.94-4.53,15.92,0,5.19,5.86,6.95,11.03,7.42l-5.91-14.76c-.14-.36-.07-.76.19-1.05l2-2.19c-4.85-2.5-4.55-1.62-2.79-5.35ZM37.5,35.12l-4.36,24.87c.98,0,1.93-.02,2.85-.06l6.03-15.06-2.46-2.69c-.44-.49-.31-1.26.28-1.56l3.72-1.92-1.43-3.03c-1.28-.24-2.66-.35-4.63-.55ZM45.34,40.03l-3.42,1.76c2.78,3.03,2.59,2.25,1.63,4.65.14.28.08,0,1.04,11.87.6-.26,1.2-.54,1.77-.88,1.77-1.05,2.88-2.99,2.88-5.07,0-5.86.37-13.6-4.53-15.92l1.07,2.27c.23.49.03,1.07-.45,1.32ZM42.97,22.41c3.71,1.98,7.92-3.52,6.79-8.07-.45-1.8-1.73-3.29-3.34-3.89-.53-.2-.79-.8-.57-1.33.9-2.11-1.3-5.44-5.62-4.45,2.28,2.28,3.6,6.35,3.6,13.34,0,1.55-.31,3.04-.85,4.4ZM41.94,50.46l-3.74,9.33c1.56-.14,3.03-.39,4.43-.79l-.7-8.54ZM20.94,22.46c-.56-1.37-.87-2.87-.87-4.44,0-7.01,1.32-11.08,3.61-13.36-4.23-.91-6.43,2.34-5.53,4.46.22.53-.04,1.13-.57,1.33-1.61.6-2.89,2.09-3.34,3.89-1.13,4.51,2.99,9.93,6.7,8.12ZM35.47,35.16l-2.92,2.18c-.36.26-.84.26-1.2,0l-2.92-2.18,3.52,20.05,3.52-20.05ZM31.95,20.83c-2.33,2.67-5.3,4.26-8.35,2.44,3.89,6.16,12.8,6.16,16.69,0-3.05,1.83-6.01.24-8.35-2.44ZM22.09,18.3c5.17.27,6.13-4.16,9.86-.56,3.68-3.56,4.75.83,9.86.56,0-.1.01-.19.01-.29,0-12.96-4.47-14.01-9.87-14.01-4.58,0-5.45,1.1-5.88,1.25-3.6,2.34-4.11,8.77-3.98,13.06ZM35.68,32.51v-3.23c-2.45.81-5.02.81-7.46,0v3.23l3.73,2.78,3.73-2.78ZM20.33,38.7c5.55,2.86,5.35,2.02,1.54,6.17l6.03,15.06c.92.04,1.88.05,2.85.06l-4.36-24.87c-1.9.19-3.33.31-4.63.55l-1.43,3.03Z"/>
</svg>