<?xml version="1.0" encoding="UTF-8"?>
<svg id="Layer_5" xmlns="http://www.w3.org/2000/svg" viewBox="0 0 64 64">
  <path d="M31.63,35.44l-3.14-3.02v-1.56c2.22.72,4.65.77,7.02,0v2.16c-2.71,2.6-2.61,2.51-2.77,2.68-.27-.3-.68-.43-1.1-.26ZM29.84,36.49l-2.49-2.39-4.27,2.57,3.32,4.72,3.44-4.89ZM41.54,36.67l-4.27-2.57-2.49,2.39,3.44,4.89,3.32-4.72ZM22.64,20.06c0,5.16,4.2,9.36,9.36,9.36s9.36-4.2,9.36-9.36c0-1.11-.04-2.11-.11-3.03-6.04-2.2-12.47-2.17-18.49.07-.07.97-.11,2.34-.11,2.96ZM43.13,15.76c.4-.9.61-1.86.61-2.83,0-7.55-3.97-8.93-11.78-8.93s-11.77,1.38-11.77,8.93c0,1.01.23,2.01.68,2.95,1.09-9.58,6.22-8.43,12.35-8.51,2.8-.05,5.45-.07,7.4,1.85,1.33,1.31,2.15,3.44,2.51,6.53,0,0,0,0,0,0ZM33.24,9.38c-6.35.08-9.12-.77-10.21,5.49,5.64-1.87,11.89-2.03,17.94-.05-.94-5.28-3.16-5.51-7.73-5.44ZM43.48,37.38c-4.7,6.68-4.54,6.74-5.26,6.74s-.33.26-5.22-6.68v13.57c0,1.32-2,1.32-2,0v-12.69c-4.05,5.75-3.89,5.8-4.6,5.8s-.4.17-5.38-6.9c-5.77,1.68-5.44,9.11-5.44,15.56,0,1.96,1.04,3.79,2.71,4.78.52.31,1.07.57,1.63.82l.87-10.88c.11-1.32,2.1-1.16,1.99.16l-.92,11.41c3,.86,6.25.94,10.13.94s7.14-.08,10.13-.94l-.93-11.41c-.11-1.33,1.89-1.47,1.99-.16l.89,10.89c.56-.24,1.11-.5,1.62-.81,1.67-.99,2.71-2.82,2.71-4.78,0-5.85.33-13.54-4.94-15.4Z"/>
</svg>