<?xml version="1.0" encoding="UTF-8"?>
<svg id="Layer_5" xmlns="http://www.w3.org/2000/svg" viewBox="0 0 64 64">
  <path d="M31.89,39.46l-3.41-4.56v-4.68c2.21.8,4.69.83,7.04-.07v4.47l-3.63,4.84ZM41.86,15.88c.12,1.26.18,2.71.19,4.31,3.69-7.6-.76-15.49-6.74-16.15-3.54-.39-4.5,1.49-10.7,3.25-6.09,1.73-6.98,9.01-2.84,13.25,0-1.25.04-2.44.11-3.55-.53-.46-.44-1.26.12-1.6,7.22-4.57,6.97-4.58,7.58-4.41,11.77,3.35,0,0,11.77,3.36.61.19.95.93.51,1.53ZM39.99,36.6c-.91-.1-1.74-.17-3.21-.33l-2.88,3.84,3.49,2.28,2.59-5.8ZM23.81,36.62l2.58,5.78,3.49-2.28-2.86-3.82c-1.77.18-2.28.22-3.21.33ZM27.49,52.65v-1.99l-4.96-.34-.2,2.51,2.67,1.88,2.49-2.07ZM39.87,16l-10.4-2.96-5.55,3.52c-.09,1.26-.14,2.64-.14,4.12,0,6.13,6.45,9.93,11.68,7.34,2.84-1.38,4.61-4.19,4.61-7.34,0-1.77-.06-3.34-.19-4.68ZM36.35,50.67v1.99l2.49,2.07c2.78-1.96,2.56-1.82,2.81-1.95l-.2-2.46-5.1.35ZM18.25,57.56c.53.31,1.07.58,1.63.82l.88-10.92c.11-1.33,2.1-1.15,1.99.16l-.06.72,5.87.4c.52.04.93.47.93,1v3.39c0,.63-.07.53-3.8,3.63-.18.15-.41.23-.64.23-.42,0-.37-.04-2.91-1.83l-.31,3.9c4.6,1.3,15.73,1.3,20.33,0l-.33-4c-2.59,1.83-2.61,1.93-3.05,1.93-.49,0-.31.05-4.08-3.09-.48-.4-.36-.56-.36-4.16,0-.53.41-.96.93-1l6.01-.41-.06-.71c-.11-1.32,1.89-1.48,1.99-.16l.89,10.93c.56-.24,1.1-.5,1.63-.82,1.68-1,2.72-2.84,2.72-4.81,0-7.66.29-14.45-6.43-15.84l-3.29,7.38c-.16.36-.52.59-.91.59-.42,0-.12.12-5.94-3.7,0,0-.01.02-.02.02-5.75,3.76-5.49,3.67-5.91,3.67-.4,0-.75-.23-.91-.59l-3.28-7.33c-6.52,1.45-6.24,8.16-6.24,15.8,0,1.97,1.04,3.81,2.72,4.81Z"/>
</svg>