<?xml version="1.0" encoding="UTF-8"?>
<svg id="Layer_5" xmlns="http://www.w3.org/2000/svg" viewBox="0 0 64 64">
  <path d="M33.97,42.7c-.04.1-.07.19-.08.3l-4.34,2.94-2.2-9.22c.68-.08,1.32-.14,1.98-.21.02.04.28.42,4.64,6.18ZM45.06,36.91c-2.73,11.43-2.49,11.67-3.58,11.67-.44,0-.25.04-4.95-3.15v14.56c3.41-.02,6.42-.17,9.13-.94l-.93-11.4c-.11-1.32,1.89-1.48,1.99-.16l.89,10.88c.55-.24,1.1-.5,1.62-.81,1.67-.99,2.71-2.82,2.71-4.78v-2.98c0-10.03-2.53-12.13-6.89-12.89ZM17.83,55c.27-.5.79-.63,1.22-.47.61-.45,1.01-1.17,1.01-1.98v-9.8c-1.84,1.6-3.53.35-5.74,1.48-.69.35-1.37,1.06-1.39,1.87v6.44c0,1.36,1.11,2.48,2.47,2.48h2.17c.08,0,.16-.02.24-.02ZM19.66,34.94c.71,0,1.28-.57,1.28-1.28v-1.98c0-.71-.57-1.28-1.28-1.28h-6.32c-.71,0-1.28.57-1.28,1.28v1.98c0,.71.57,1.28,1.28,1.28h6.32ZM19.78,36.94c-6.91,0-6.84-.12-6.84.28v5.51c2.11-1.39,4.68-.92,5.37-1.19.47-.19,1.29-1.07,1.75-1.97,0-2.41.09-2.63-.28-2.63ZM45.25,20.26c.44-1.34.68-2.77.68-4.25,0-11.09-4.92-12.01-10.4-12.01s-10.41.92-10.41,12.01c0,1.48.24,2.92.68,4.26.32-13.01,5.55-8.21,9.72-8.21s9.4-4.81,9.72,8.21ZM22.06,52.54c0,1.47-.72,2.76-1.81,3.57.83,1.11,1.81,1.66,3.21,2.26l.87-10.88c.11-1.33,2.1-1.15,1.99.16l-.91,11.4c2.7.76,5.72.92,9.12.94v-15.01s-5.05,3.43-5.05,3.43c-.58.39-1.37.08-1.53-.6l-2.58-10.77c-1.29.28-2.4.74-3.31,1.55v13.95ZM32.03,30.87c0,4.77.16,4.91-.48,5.31l3.64,4.82,3.95-5.23c-.16-.33-.11-.08-.11-4.9-2.22.86-4.67.9-7,0ZM43.06,36.65l-1.97-.2c-.13.27.5-.6-4.66,6.23.01.03.05.17.07.29,0,0,0,.02,0,.03l4.33,2.94,2.22-9.29ZM41.8,13.44c-1.05-.83-3.51.62-6.26.62s-5.21-1.44-6.26-.62c-.98.77-1.48,3.58-1.48,8.36,0,4.27,3.47,7.74,7.74,7.74s7.74-3.47,7.74-7.74c0-4.78-.5-7.59-1.48-8.36Z"/>
</svg>