<?xml version="1.0" encoding="UTF-8"?>
<svg id="Layer_5" xmlns="http://www.w3.org/2000/svg" viewBox="0 0 64 64">
  <path d="M24.44,34.67l.88,10.71c-1.05-.47-2.2-.73-3.41-.75,0-3.24.05-7.96,2.53-9.97ZM45.67,12.26c-.3-7.08-5.38-7.12-10.29-7.17-1.94-.02-3.64-.03-6.5-.96-1.78-.58-3.45.8-3.66,2.77-.32,3.09-.53,5.53-.62,7.06-.11,2.01,1.14,3.9,2.16,5.1.07-3.45.46-5.84,1.2-7.44.23-.49.81-.71,1.3-.5,3.82,1.65,8.32,1.55,12.05-.28,2.19-1.07,2.64,5.6,2.7,8.03.85-1.27,1.79-3.42,1.65-6.63ZM42.04,20.3c0-3.3-.26-5.68-.79-7.22-3.72,1.53-8,1.62-11.8.27-.47,1.54-.7,3.83-.7,6.95,0,4.94,5.16,8.11,9.54,6,2.31-1.12,3.75-3.42,3.75-6ZM19.82,46.93c1.63,4.26,1.89,8.62.1,12.79,1.22.36,2.5.37,3.76,0-1.8-4.19-1.53-8.54.1-12.79-1.25-.39-2.64-.41-3.95,0ZM18.11,58.88c1.53-3.62,1.29-7.38-.09-11.07-3.9,2.69-3.86,8.44.09,11.07ZM45.05,51.11c4.19-1.66,3.84-3.71,3.84-7.11,0-5.06-.78-7.66-2.22-9.05l-1.62,16.16ZM25.58,47.81c-1.38,3.69-1.62,7.45-.09,11.07,3.95-2.63,3.99-8.38.09-11.07ZM44.81,33.83c-1.16-.42-2.56-.55-4.14-.71-3.04,5.43-7.21,5-10.24-.03-1.4.13-2.93.27-4.13.63.05.11.09.22.1.35,1.04,12.59,1.04,12.29.98,12.6,1.61,1.35,2.72,3.28,3.02,5.47,2.73.26,9.29.35,12.57-.39,1.79-17.93,1.74-17.64,1.84-17.93ZM32.65,28.5c0,3.77.07,3.66-.2,4.03,2.29,3.35,4.25,3.23,6.12.23-.57-.41-.43-.59-.43-4.26-1.73.58-3.63.62-5.49,0Z"/>
</svg>