<?xml version="1.0" encoding="UTF-8"?>
<svg id="Layer_5" xmlns="http://www.w3.org/2000/svg" viewBox="0 0 64 64">
  <path d="M22.32,27.07c3.3,1.93,7.48-.03,8.17-3.75h2.48c.7,3.79,4.99,5.7,8.27,3.69-3.94,7.73-14.93,7.76-18.93.06ZM35.88,39.04c-.06-.27-.04.43-.04-4.89-2.67.91-5.46.91-8.13,0,0,5.77.02,5.2-.06,5.47l4.3,10.61,3.94-11.18ZM24.69,43.98c.49.21.73.78.54,1.28l-1.49,3.85,6.38,1.89-4.34-10.71c-.09-.23-.08-.47-.01-.69-.08-.27-.05.47-.05-6.33-2.06-1.13-3.77-2.82-4.93-4.86l-6.35,3.99c-.46.47-.52,1.22-.14,1.76,5.24,7.51,10.35,9.79,10.4,9.81ZM25.08,25.82c1.93,0,3.5-1.57,3.5-3.5,0-1.26-.51-1.67-3.5-1.67s-3.5.42-3.5,1.67c0,1.93,1.57,3.5,3.5,3.5ZM22.57,59.15c4.16,1.16,14.32,1.17,18.48,0l-.72-7.98c-8.88,2.64-7.93,2.41-8.33,2.33-.4.08.55.3-8.71-2.45l-.72,8.09ZM16.77,53.42c0,1.78.94,3.44,2.46,4.34.44.26.91.5,1.39.71.96-10.77.28-7.61,2.41-13.09-.9-.5-2.42-1.47-4.27-3.11-2.06,2.73-1.99,7.81-1.99,11.15ZM19.47,25.07c-.49-2.08-.38-4.49-.25-6.77-2.91,1-4.52,2.28-4.52,3.34,0,.99,1.49,2.35,4.76,3.43ZM44.33,18.66c.1,2.01.19,4.26-.17,6.03,4.6-1.81,5.22-3.98.17-6.03ZM36.62,4.12c-1.34-.3-2.5-.05-3.48.72-1.51,1.2-3.37,1.63-5.09,1.17-.65-.17-1.39-.31-2.18-.42-1.45-.19-3.43,4.9-4.49,10.04,6.6-1.5,14.71-1.34,20.76.23-1.01-4.91-3.2-11.23-5.51-11.74ZM49.57,32.4l-6.69-4.2c-1.16,2.13-2.92,3.9-5.05,5.07,0,6.21.02,5.54-.05,5.81.14.5.18.07-4,11.95l6.49-1.93-1.49-3.85c-.19-.5.04-1.07.54-1.28.05-.02,5.16-2.31,10.4-9.81.38-.54.31-1.29-.14-1.76ZM40.97,45.38c1.63,4.2,1.95,4.5,1.3,5.1l.72,7.99c.49-.21.96-.45,1.4-.71,1.51-.9,2.46-2.56,2.46-4.34,0-3.27.07-8.18-1.84-10.96-1.75,1.52-3.19,2.43-4.05,2.91ZM30.48,21.32h2.51c.58-2.67,3.54-2.67,5.39-2.67,1.17,0,2.8,0,3.98.69-.02-.48-.04-.94-.07-1.38-6.09-1.77-14.88-1.79-21.03-.25-.04.5-.06,1.03-.09,1.59,1.17-.64,2.76-.64,3.91-.64,1.85,0,4.81,0,5.39,2.67ZM34.88,22.32c0,1.93,1.57,3.5,3.5,3.5s3.5-1.57,3.5-3.5c0-1.26-.51-1.67-3.5-1.67s-3.5.42-3.5,1.67Z"/>
</svg>