<?xml version="1.0" encoding="UTF-8"?>
<svg id="Layer_5" xmlns="http://www.w3.org/2000/svg" viewBox="0 0 64 64">
  <path d="M29.33,4h5.11c3.48,0,6.31,2.83,6.31,6.31v1.93c-1.79-.62-4.3.27-8.75.27s-7.17-.97-8.97-.17v-2.03c0-3.48,2.83-6.31,6.31-6.31ZM37.11,24.74l1.41,4.44c1.68-1.64,2.73-3.91,2.8-6.42l-4.21,1.98ZM32.31,44.04c3.25.09,6.19-2,7.26-5.04-5.19-.6-4.38.64-4.38-5.62-2.12.62-4.29.62-6.4,0v4.28c0,.51-.38.94-.89.99-1.01.11-1.88.18-2.86.28,1.04,2.83,4.02,5,7.26,5.1ZM41.57,39.33c-1.14,3.7-4.49,6.39-8.31,6.69l-.19,10.11c-.02,1.34-2.02,1.26-2-.04l.19-10.14c-3.8-.52-7.14-3.28-8.23-6.75-6.47,1.15-6.27,6.81-6.27,14.32,0,1.75.95,3.38,2.49,4.27.46.27.94.5,1.43.71l.8-9.78c.11-1.31,2.1-1.16,1.99.16l-.85,10.28c4.24,1.15,14.48,1.15,18.73,0l-.86-10.28c-.11-1.3,1.88-1.51,1.99-.17l.82,9.79c.49-.21.96-.44,1.43-.71,1.53-.89,2.49-2.52,2.49-4.27,0-6.69.27-12.87-5.65-14.2ZM37.06,14.19c-13.79,1.49-14.16-3.86-14.36,5.79l4.94,2.87h8.79l4.89-2.3c-.05-3.5-.26-5.66-.92-6.26-.47-.42-1.67-.29-3.33-.11ZM36.83,30.49l-1.79-5.64h-6.94l-1.64,5.16c3,2.23,7.07,2.5,10.38.48ZM22.67,22.28c0,2.48.74,4.51,2.17,6.22l1.33-4.18-3.5-2.03Z"/>
</svg>