<?xml version="1.0" encoding="UTF-8"?>
<svg id="Layer_5" xmlns="http://www.w3.org/2000/svg" viewBox="0 0 64 64">
  <path d="M23.5,14.75c1.1-5.59,3.64-2.2,8.5-2.2,1.37,0,2.65-.31,3.78-.59,2.96-.72,4-.87,4.72,2.79-5.29,2.99-11.7,2.99-16.99,0ZM28.66,31.99v3.92l3.34,4.6,3.34-4.6v-3.92c-2.18.7-4.51.7-6.69,0ZM16.21,53.07c0,1.88,1,3.64,2.6,4.59.49.29,1,.54,1.51.77.89-11.16.72-10.77,1.24-11.16l-.68-.47c-.49-.33-.59-1.03-.19-1.49l1.34-1.52-2.35-4.89c-3.81,2.43-3.47,9.38-3.47,14.18ZM23.02,21.53c0,4.95,4.03,8.98,8.98,8.98s8.98-4.03,8.98-8.98c0-1.81-.07-3.35-.2-4.67-5.44,2.79-11.92,2.9-17.58,0-.13,1.32-.2,2.86-.2,4.67ZM27.99,51.66l-4.86-3.32-.86,10.76c2.07.58,4.34.79,6.83.86l-1.11-8.3ZM33.17,59.99l2.9-21.67c-3.47,4.78-3.38,4.9-4.07,4.9s-.57-.08-3.71-4.4l2.83,21.18c.96,0,.44,0,2.05,0ZM47.79,53.07c0-4.64.33-11.49-3.24-14.03l-2.29,4.74c1.35,1.53,1.65,1.7,1.58,2.29-.07.56-.38.67-1.49,1.46.67.38.45.09,1.33,10.88.52-.22,1.03-.48,1.52-.77,1.6-.95,2.6-2.71,2.6-4.59ZM46.52,12.02c0-4.57-6.25-8.02-14.53-8.02s-14.53,3.45-14.53,8.02c0,2.53,1.21,4.41,3.66,5.73.78-12.01,6.28-7.2,10.87-7.2s10.09-4.91,10.87,7.2c2.45-1.31,3.65-3.19,3.65-5.73ZM22.94,45.78l4.7,3.21-1.55-11.59c-1.51.15-3.21.29-4.58.69l2.61,5.42c.36.75-.2,1.15-1.18,2.26ZM40.87,48.59l-4.6,3.25-1.08,8.11c2.37-.08,4.54-.3,6.53-.85l-.85-10.51ZM42.75,38.17c-1.3-.42-2.82-.57-4.55-.74l-1.56,11.7,4.73-3.35c-1.01-1.15-1.55-1.53-1.19-2.27l2.58-5.34Z"/>
</svg>