<?xml version="1.0" encoding="UTF-8"?>
<svg id="Layer_5" xmlns="http://www.w3.org/2000/svg" viewBox="0 0 64 64">
  <path d="M47.63,53.15c0,1.86-.98,3.59-2.57,4.53-.48.29-.98.53-1.49.75l-.84-10.33c-.11-1.31-2.1-1.17-1.99.16l.88,10.85c-4.36,1.22-14.88,1.22-19.24,0l.87-10.85c.11-1.32-1.89-1.48-1.99-.16l-.83,10.33c-.51-.22-1-.47-1.48-.75-1.59-.94-2.57-2.68-2.57-4.53,0-6.39-.31-13.21,5.24-14.82,2.94,8.3,2.78,8.58,3.74,8.58.37,0,.04.12,5.93-3.14v9.12c0,1.32,2,1.32,2,0v-8.68c4.8,2.66,4.92,2.87,5.5,2.64.62-.23.41-.11,3.4-8.57,3.46.92,5.44,3.37,5.44,12.03v2.85ZM40.2,37.9c-1.1-.15-1.85-.19-3.59-.38l-2.92,4.62,4.19,2.32,2.32-6.56ZM23.59,37.93l2.31,6.53,4.19-2.32-2.9-4.6c-2,.21-2.58.24-3.6.39ZM39.16,19.06c-2.55-.84-5.13-2.26-7.29-4.12-2.35,1.07-4.78,2.36-6.93,3.63-.13,1.3-.2,2.81-.2,4.51,0,2.78,1.61,5.35,4.11,6.55,4.77,2.36,10.46-1.17,10.46-6.55,0-1.54-.05-2.86-.15-4.02ZM32,4c-9.33,0-14.06,5.09-14.06,15.13,0,6.16,3.54,11.71,8.76,14,0-2.39,0-2.17.02-2.44-2.45-1.71-3.99-4.56-3.99-7.61,0-.74.04-4.99.4-5.61.46-.82,7.63-4.24,8.5-4.62.36-.16.79-.1,1.08.18,2.39,2.19,5.41,3.76,8.1,4.46.79.21,1.01,1.24.36,1.75.09,1.13.13,2.4.13,3.84,0,3.07-1.55,5.93-4.03,7.64.03.27.02.07.02,2.4,5.22-2.28,8.76-7.84,8.76-14,0-10.04-4.73-15.13-14.06-15.13ZM35.3,31.76c-2.1.8-4.42.83-6.6-.02v4.46l3.19,5.06c3.01-4.78,3.23-5.13,3.41-5.37v-4.12Z"/>
</svg>