<?xml version="1.0" encoding="UTF-8"?>
<svg id="Layer_5" xmlns="http://www.w3.org/2000/svg" viewBox="0 0 64 64">
  <path d="M25.54,35.17c.74,0,2.83,1.18,4.88,2.76-2.04,1.62-4.09,2.9-4.77,2.94-.55-.59-.63-4.09-.12-5.7ZM23.51,16.83c-.05.88-.07,1.88-.07,3.02,0,4.72,3.84,8.56,8.56,8.56s8.56-3.84,8.56-8.56c0-1.42-.04-2.68-.12-3.81-2.81.04-5.79-.2-8.08-1.81-2.73,1.56-5.92,2.44-8.86,2.59ZM46.4,17.54c0-9.36-4.39-13.54-14.25-13.54s-14.26,4.17-14.26,13.54c0,5.45,3.4,10.27,8.59,12.4,0-.65-.03-.76.1-1.03-3.08-1.85-5.16-5.21-5.16-9.06,0-1.6.04-2.93.13-4.08.04-.5.45-.88.94-.91h0c7.73-.04,8.96-3.8,10.8-2.41,2.42,1.8,5.63,1.57,8.34,1.57.8,0,1.33.93.76,1.62.09,1.24.14,2.62.14,4.2,0,3.85-2.07,7.21-5.16,9.06.13.28.1.39.1,1.15,5.29-2.04,8.89-7.02,8.89-12.53ZM43.58,51.92l.53,6.46c.55-.24,1.09-.5,1.62-.81,1.68-.99,2.72-2.83,2.72-4.8,0-3.94.21-9.73-1.93-13.05-2.89,12.21-2.81,11.97-2.94,12.2ZM27.58,42.24c-.75.37-1.82.81-2.61.52-1.74-.62-1.92-3.73-1.71-6.03-1.67.24-3.01.59-4.07,1.27l2.06,8.72c.76-.47,1.58.15,1.52.91l-.92,11.42c2.73.77,5.77.92,9.21.94l-.06-8.96-3.43-8.79ZM32.04,39.18c-.87.72-1.8,1.43-2.71,2.04l2.62,6.73,2.42-6.98c-.79-.55-1.58-1.16-2.33-1.78ZM42.79,46.76l2.07-8.75c-1.17-.79-2.56-1.08-4.05-1.27.21,2.31.03,5.41-1.71,6.03-.88.32-2.17-.27-3-.71l-3.11,8.96.06,8.98c3.39-.02,6.39-.18,9.08-.94l-.93-11.42c-.07-.81.84-1.41,1.57-.88ZM17.53,39.66c-2.19,3.29-1.97,9.16-1.97,13.1,0,1.96,1.04,3.8,2.72,4.8.53.31,1.08.58,1.63.82l.53-6.66c-.14-.23-.05.01-2.91-12.06ZM35.51,34.26v-4.46c-2.26.8-4.67.83-7.02,0v4.41c1.31.73,2.62,1.7,3.55,2.44.91-.73,2.18-1.67,3.47-2.39ZM38.55,35.17c-.71,0-2.72,1.1-4.88,2.76,2.04,1.62,4.09,2.9,4.77,2.94.55-.59.64-4.08.12-5.7Z"/>
</svg>