<?xml version="1.0" encoding="UTF-8"?>
<svg id="Layer_5" xmlns="http://www.w3.org/2000/svg" viewBox="0 0 64 64">
  <path d="M41.51,31.84c0,5.64-.49,5.15,2.4,5.43-2.19,4.3-4.37,6.5-6.24,6.39-2.51-.16-4.58-4.31-5.36-6.38,3.05-.29,2.48.13,2.48-5.43,2.18.7,4.45.73,6.73,0ZM25.81,43.39h-5.33c-.22,0-.4.18-.4.4v2.45c0,.55-.45,1-1,1-1,0-1.79.79-1.79,1.76v6.81c0,2.13,1.74,3.87,3.87,3.87h3.89c2.13,0,3.87-1.74,3.87-3.87v-6.81c0-.95-.78-1.74-1.73-1.76-.55,0-.98-.45-.98-1v-2.46c0-.22-.18-.4-.4-.4ZM24.69,15.82c0,2.49.9,4.86,2.52,6.83-.2-1.68-.02-5.14.15-6.83-1.09-.12-1.21-1.66-.16-1.95,9.62-2.7,8.98-4.49,11.6-3.41,3.46,1.5,6.43,2.51,9.66,3.48.67.2.98,1.05.44,1.63.2,1.79.42,5.63.15,7.42,1.78-2.03,2.78-4.52,2.78-7.16,0-8.07-4.31-11.82-13.57-11.82s-13.57,3.76-13.57,11.82ZM47.17,21.36c0-2.31-.09-4.22-.29-5.81-14.91-4.57-4.27-4.34-17.45-.25-.21,1.67-.31,3.66-.31,6.06,0,6.75,7.14,11,12.95,8.12,3.1-1.49,5.1-4.68,5.1-8.12ZM46.02,37.49s0,.06-.02.09c-2.65,5.44-5.32,8.09-8.16,8.09-3.71,0-6.41-4.69-7.58-8.17-2.1.25-3.8.63-5.08,1.74-.27.76-.71,1.49-1.47,1.94-.03.07-.06.14-.1.21h2.19c1.32,0,2.4,1.08,2.4,2.4v1.61c1.56.46,2.72,1.91,2.72,3.61v6.81c0,1.36-.47,2.61-1.25,3.6,3.83.78,13.77.93,18.24-.32l-.9-11.02c-.11-1.31,1.89-1.49,1.99-.16l.86,10.51c.52-.23,1.03-.48,1.53-.77,1.61-.96,2.61-2.72,2.61-4.61v-2.89c0-10.68-2.97-12.06-8-12.65ZM21.46,39.01c-.17-3.89-2.24-7.72-5.51-9.86-1.11-.73-.01-2.4,1.1-1.67,3.58,2.35,5.92,6.44,6.35,10.7,0,0,.01-.02.02-.02.14-.53.2-1.04.27-1.53.5-3.8,1.7-7.98-3.92-11.75-2.54-1.7-5.17-2.29-8.13-2.6-.61-.07-1.09-.23-1.45.19-.36.41-.16.74.14,2.01,1.41,5.79,2.13,7.21,7.68,11.6,1.17.93,2.37,1.89,3.46,2.95Z"/>
</svg>